<svg xmlns="http://www.w3.org/2000/svg">
    <symbol id="local-shuttle" viewBox="0 0 34 40">

                                                                                                            <path d="M0 29.4737C0 31.3263 0.821053 32.9895 2.10526 34.1474V36.8421C2.10526 38.5895 3.51579 40 5.26316 40C7.01053 40 8.42105 38.5895 8.42105 36.8421V35.7895H25.2632V36.8421C25.2632 38.5684 26.6737 40 28.4211 40C30.1474 40 31.5789 38.5895 31.5789 36.8421V34.1474C32.8632 32.9895 33.6842 31.3263 33.6842 29.4737V8.42105C33.6842 1.05263 26.1474 0 16.8421 0C7.53684 0 0 1.05263 0 8.42105V29.4737ZM7.36842 31.5789C5.62105 31.5789 4.21053 30.1684 4.21053 28.4211C4.21053 26.6737 5.62105 25.2632 7.36842 25.2632C9.11579 25.2632 10.5263 26.6737 10.5263 28.4211C10.5263 30.1684 9.11579 31.5789 7.36842 31.5789ZM26.3158 31.5789C24.5684 31.5789 23.1579 30.1684 23.1579 28.4211C23.1579 26.6737 24.5684 25.2632 26.3158 25.2632C28.0632 25.2632 29.4737 26.6737 29.4737 28.4211C29.4737 30.1684 28.0632 31.5789 26.3158 31.5789ZM29.4737 18.9474H4.21053V8.42105H29.4737V18.9474Z" fill="currentColor">
                                                                                                            </path>
                                                                                                        
    </symbol>
    <symbol id="waiting-room" viewBox="0 0 25 40">

                                                                                                            <path d="M2.5 0C3.16304 0 3.79893 0.263393 4.26777 0.732234C4.73661 1.20107 5 1.83696 5 2.5V17.5H22.5C23.163 17.5 23.7989 17.7634 24.2678 18.2322C24.7366 18.7011 25 19.337 25 20V37.5C25 38.163 24.7366 38.7989 24.2678 39.2678C23.7989 39.7366 23.163 40 22.5 40C21.837 40 21.2011 39.7366 20.7322 39.2678C20.2634 38.7989 20 38.163 20 37.5V30H5V37.5C5 38.163 4.73661 38.7989 4.26777 39.2678C3.79893 39.7366 3.16304 40 2.5 40C1.83696 40 1.20107 39.7366 0.732231 39.2678C0.26339 38.7989 0 38.163 0 37.5V2.5C0 1.83696 0.26339 1.20107 0.732231 0.732234C1.20107 0.263393 1.83696 0 2.5 0Z" fill="currentColor">
                                                                                                            </path>
                                                                                                        
    </symbol>
    <symbol id="after-hours" viewBox="0 0 40 40">

                                                                                                            <path fill-rule="evenodd" clip-rule="evenodd" d="M18.668 10.6667C18.668 4.78533 23.4533 0 29.3346 0C35.216 0 40.0013 4.78533 40.0013 10.6667C40.0013 14.5413 37.9786 18.0067 34.668 19.9013V36C34.668 36.3533 34.528 36.6933 34.2773 36.9427L31.6106 39.6093C31.3506 39.8693 31.0093 40 30.668 40C30.3266 40 29.9853 39.8693 29.7253 39.6093L27.0586 36.9427C26.808 36.6933 26.668 36.3533 26.668 36V33.3333C26.668 33.1267 26.716 32.9213 26.8093 32.7373L27.844 30.6667L26.808 28.596C26.62 28.22 26.62 27.7787 26.808 27.4027L27.712 25.596L24.392 22.276C24.1413 22.0267 24.0013 21.6867 24.0013 21.3333V19.9013C20.6906 18.0067 18.668 14.5413 18.668 10.6667ZM26.668 8.71333C26.6946 10.184 27.912 11.36 29.3813 11.3333C30.8506 11.3067 32.0266 10.0893 32.0013 8.62C31.9746 7.14933 30.7573 5.97333 29.288 6C27.8186 6.02667 26.6426 7.244 26.668 8.71333ZM22.84 22.28C22.72 21.9867 22.6667 21.6534 22.6667 21.3334V20.64C19.3067 18.4267 17.3333 14.76 17.3333 10.6667C17.3333 6.97338 19.0133 3.66671 21.64 1.46671C20.6 1.29338 19.5333 1.28005 18.48 1.44005C18.4 1.45338 18.2933 1.48005 18.1867 1.52005C16.08 1.92005 14.16 2.93338 12.64 4.45338C9.92 7.18671 8.89333 11.1867 9.92 14.8667L8.38667 16.3867C8.05334 16.72 7.92 17.2 8.04 17.6534L9.08 21.7867L6.24 22.7334C5.85333 22.8667 5.53333 23.1867 5.4 23.5734L4.37333 26.6667H2.66667C2.30667 26.6667 1.97333 26.8134 1.72 27.0534L0.386667 28.3867C0.146667 28.64 0 28.9734 0 29.3334V33.3334C0 34.0667 0.6 34.6667 1.33333 34.6667H5.33333C5.69333 34.6667 6.02667 34.52 6.28 34.28L18.0933 22.4534C19.1733 22.68 20.44 22.7067 21.3333 22.6C21.48 22.6 21.64 22.5734 21.7733 22.52C22.1333 22.4534 22.4933 22.3734 22.84 22.28Z" fill="currentColor">
                                                                                                            </path>
                                                                                                        
    </symbol>
    <symbol id="dining" viewBox="0 0 116 116">

                                                                                                            <path fill-rule="evenodd" clip-rule="evenodd" d="M16 73V19H2C0.895 19 0 18.105 0 17V13C0 11.895 0.895 11 2 11H21C23.209 11 25 12.791 25 15V35H98C99.105 35 100 35.895 100 37V53.917C95.712 52.041 90.977 51 86 51C76.714 51 68.268 54.624 62 60.534V53C62 51.896 61.104 51 60 51C58.896 51 58 51.896 58 53V65.007C55.75 68.003 53.969 71.37 52.766 75H40C39.538 75 39.091 74.84 38.734 74.548L38 73.948V53C38 51.896 37.104 51 36 51C34.896 51 34 51.896 34 53V73.948L33.266 74.548C32.909 74.84 32.462 75 32 75H18C16.895 75 16 74.105 16 73ZM28 86C31.863 86 35 89.137 35 93C35 96.863 31.863 100 28 100C24.137 100 21 96.863 21 93C21 89.137 24.137 86 28 86ZM51.701 93H37C37 88.033 32.967 84 28 84C23.033 84 19 88.033 19 93H18C16.895 93 16 92.105 16 91V83C16 81.895 16.895 81 18 81H19V79H27V81H51.355C51.121 82.633 51 84.303 51 86C51 88.397 51.241 90.738 51.701 93ZM92 21.535C93.196 22.227 94 23.519 94 25V29C94 30.105 93.105 31 92 31H58C56.895 31 56 30.105 56 29V25C56 23.519 56.804 22.227 58 21.535V19C58 12.217 64.417 7 70 7V6C70 3.791 71.791 2 74 2H76C78.209 2 80 3.791 80 6V7C85.583 7 92 12.217 92 19V21.535ZM67.063 18.447C67.385 17.041 68.763 16 70 16C71.104 16 72 15.104 72 14C72 12.896 71.104 12 70 12C67.151 12 63.906 14.313 63.164 17.553C62.917 18.629 63.591 19.703 64.667 19.949C65.743 20.196 66.816 19.523 67.063 18.447ZM32 18V15C32 13.136 34.275 11.57 36 11.126V2C36 0.895 36.895 0 38 0H42C43.105 0 44 0.895 44 2V11.126C45.725 11.57 48 13.136 48 15V18H32ZM48 22V29C48 30.105 47.105 31 46 31H34C32.895 31 32 30.105 32 29V22H48ZM86 56C102.557 56 116 69.443 116 86C116 102.557 102.557 116 86 116C69.443 116 56 102.557 56 86C56 69.443 69.443 56 86 56ZM90 91.999V102C90 104.077 91.903 106 94.5 106C97.097 106 99 104.077 99 102V88V66C99 65.47 98.789 64.961 98.414 64.586C98.039 64.211 97.53 64 97 64C94.483 64 91.789 65.211 90.042 67.097C88.774 68.466 88 70.172 88 72V90C88 91.105 88.896 92 90 91.999ZM95 97H94V94H95V97ZM94 101H95V101.851C94.904 101.897 94.669 102 94.5 102C94.331 102 94.096 101.897 94 101.851V101ZM95 90H93.465C93.292 89.7 93.079 89.42 92.829 89.171C92.58 88.921 92.3 88.708 92 88.535V72C92 70.935 92.66 70.007 93.519 69.309C93.963 68.948 94.468 68.646 95 68.424V88V90ZM77 81V82H76C74.895 82 74 82.895 74 84V102C74 104.209 75.791 106 78 106H80C82.209 106 84 104.209 84 102V84C84 82.895 83.105 82 82 82H81V81H82C84.209 81 86 79.209 86 77V67C86 65.896 85.104 65 84 65C82.896 65 82 65.896 82 67V77H81V67C81 65.896 80.104 65 79 65C77.896 65 77 65.896 77 67V77H76V67C76 65.896 75.104 65 74 65C72.896 65 72 65.896 72 67V77C72 79.209 73.791 81 76 81H77ZM78 101H80V102H78V101ZM78 91H80V97H78V91ZM80 87H78V86H80V87Z" fill="currentColor">
                                                                                                            </path>
                                                                                                        
    </symbol>
    <symbol id="hotel" viewBox="0 0 88 88">

                                                                                                            <path d="M24.156 11.031L25.8748 9.46849L23.6873 9.15599C22.906 8.99974 22.2811 8.53099 21.8123 7.90599L20.5623 5.71849L19.6248 7.74969C19.3123 8.53094 18.531 8.99969 17.7498 9.15589L15.5623 9.46839L17.2811 11.0309C17.9061 11.6559 18.0623 12.4371 17.9061 13.2184L17.4373 15.4059L19.4685 14.3121C19.781 14.1558 20.2498 13.9996 20.5623 13.9996C21.0311 13.9996 21.3436 14.1558 21.6562 14.3121L23.6873 15.4059L23.3748 13.2184C23.2186 12.4371 23.531 11.656 24.156 11.031Z" fill="currentColor">
                                                                                                            </path>
                                                                                                            <path d="M7.438 26.344C7.28175 25.4065 7.59425 24.3128 8.3755 23.6878L9.313 22.7503L7.9068 22.594C6.9693 22.4378 6.0318 21.8128 5.563 20.8752L4.938 19.6252L4.313 20.8752C3.84425 21.8127 3.063 22.4377 1.9692 22.594L0.563 22.7503L1.813 23.6878C2.59425 24.3128 2.9068 25.4066 2.59425 26.344L2.438 27.594L3.688 26.969C4.0005 26.8127 4.6255 26.8127 4.938 26.8127C5.563 26.8127 6.0318 26.8127 6.5005 27.1252L7.7505 27.7502L7.438 26.344Z" fill="currentColor">
                                                                                                            </path>
                                                                                                            <path d="M64.156 15.406L66.1872 14.3122C66.9685 13.9997 67.7497 13.9997 68.3747 14.3122L70.4059 15.406L70.0934 13.2185C69.9371 12.4372 70.2496 11.656 70.7184 11.031L72.4372 9.4685L70.2497 9.156C69.4685 8.99975 68.6872 8.531 68.3747 7.7498L67.4372 5.7186L66.4997 7.7498C66.1872 8.53105 65.4059 8.9998 64.6247 9.156L62.4372 9.4685L64.156 11.031C64.781 11.656 64.9372 12.4372 64.781 13.2185L64.156 15.406Z" fill="currentColor">
                                                                                                            </path>
                                                                                                            <path d="M40.406 9.46899L39.781 12.9065L42.906 11.344C43.531 11.0315 44.3122 11.0315 44.9372 11.344L48.0622 12.9065L47.4372 9.46899C47.2809 8.84399 47.5934 8.06279 48.0622 7.59399L50.5622 5.09399L47.1247 4.62524C46.4997 4.46899 45.8747 4.00024 45.5622 3.37524L43.9997 0.250244L42.4372 3.37524C42.1247 4.00024 41.4997 4.46904 40.7184 4.62524L37.2809 5.09399L39.7809 7.59399C40.4059 8.06274 40.5622 8.68779 40.406 9.46899Z" fill="currentColor">
                                                                                                            </path>
                                                                                                            <path d="M24 21.188H64.156V25.4068H24V21.188Z" fill="currentColor">
                                                                                                            </path>
                                                                                                            <path d="M9.469 80.875H23.531V36.187H9.469V80.875ZM14.1565 42.437H18.6877C19.6252 42.437 20.4065 43.2182 20.4065 44.1558C20.4065 45.0933 19.6253 45.8746 18.6877 45.8746H14.1565C13.219 45.8746 12.4377 45.0933 12.4377 44.1558C12.4377 43.2182 13.2189 42.437 14.1565 42.437ZM14.1565 52.1245H18.6877C19.6252 52.1245 20.4065 52.9057 20.4065 53.8433C20.4065 54.7808 19.6253 55.5621 18.6877 55.5621H14.1565C13.219 55.5621 12.4377 54.7808 12.4377 53.8433C12.4377 52.7495 13.2189 52.1245 14.1565 52.1245ZM14.1565 61.6557H18.6877C19.6252 61.6557 20.4065 62.4369 20.4065 63.3745C20.4065 64.312 19.6253 65.0933 18.6877 65.0933H14.1565C13.219 65.0933 12.4377 64.312 12.4377 63.3745C12.4377 62.4369 13.2189 61.6557 14.1565 61.6557ZM14.1565 71.3432H18.6877C19.6252 71.3432 20.4065 72.1244 20.4065 73.062C20.4065 73.9995 19.6253 74.7808 18.6877 74.7808H14.1565C13.219 74.7808 12.4377 73.9995 12.4377 73.062C12.4377 72.1244 13.2189 71.3432 14.1565 71.3432Z" fill="currentColor">
                                                                                                            </path>
                                                                                                            <path d="M6.656 84.312H23.375V87.7495H6.656V84.312Z" fill="currentColor">
                                                                                                            </path>
                                                                                                            <path d="M35.719 70.875H42.2815V87.75H35.719V70.875Z" fill="currentColor">
                                                                                                            </path>
                                                                                                            <path d="M45.719 70.875H52.2815V87.75H45.719V70.875Z" fill="currentColor">
                                                                                                            </path>
                                                                                                            <path d="M49.312 55.406H53.9995V59.9372H49.312V55.406Z" fill="currentColor">
                                                                                                            </path>
                                                                                                            <path d="M34 55.406H38.6875V59.9372H34V55.406Z" fill="currentColor">
                                                                                                            </path>
                                                                                                            <path d="M26.812 87.75H32.2808V69.781C32.2808 68.531 33.3746 67.4372 34.6246 67.4372H53.2186C54.4686 67.4372 55.5624 68.531 55.5624 69.781V87.75H61.1874V28.844H26.8124L26.812 87.75ZM57.281 54.625V60.875C57.281 62.2812 56.1872 63.5312 54.6248 63.5312H48.3748C46.9686 63.5312 45.7186 62.4374 45.7186 60.875V54.625C45.7186 53.2188 46.8124 51.9688 48.3748 51.9688H54.6248C56.1873 51.9688 57.281 53.2188 57.281 54.625ZM37.281 34.469C37.281 33.5315 38.0623 32.7502 38.9998 32.7502C39.9374 32.7502 40.7186 33.5314 40.7186 34.469V38.6878H47.1248V34.469C47.1248 33.5315 47.9061 32.7502 48.8436 32.7502C49.7812 32.7502 50.5624 33.5314 50.5624 34.469V46.188C50.5624 47.1255 49.7812 47.9068 48.8436 47.9068C47.9061 47.9068 47.1248 47.1255 47.1248 46.188V41.9692H40.7186V46.188C40.7186 47.1255 39.9374 47.9068 38.9998 47.9068C38.0623 47.9068 37.281 47.1255 37.281 46.188V34.469ZM30.7185 54.625C30.7185 53.2188 31.8123 51.9688 33.3747 51.9688H39.6247C41.0309 51.9688 42.2809 53.0626 42.2809 54.625V60.875C42.2809 62.2812 41.1871 63.5312 39.6247 63.5312H33.3747C31.9685 63.5312 30.7185 62.4374 30.7185 60.875V54.625Z" fill="currentColor">
                                                                                                            </path>
                                                                                                            <path d="M64.469 80.875H78.531V36.187H64.469V80.875ZM69.3128 42.437H73.844C74.7815 42.437 75.5628 43.2182 75.5628 44.1558C75.5628 45.0933 74.7816 45.8746 73.844 45.8746H69.3128C68.3753 45.8746 67.594 45.0933 67.594 44.1558C67.594 43.2182 68.3752 42.437 69.3128 42.437ZM69.3128 52.1245H73.844C74.7815 52.1245 75.5628 52.9057 75.5628 53.8433C75.5628 54.7808 74.7816 55.5621 73.844 55.5621H69.3128C68.3753 55.5621 67.594 54.7808 67.594 53.8433C67.594 52.7495 68.3752 52.1245 69.3128 52.1245ZM69.3128 61.6557H73.844C74.7815 61.6557 75.5628 62.4369 75.5628 63.3745C75.5628 64.312 74.7816 65.0933 73.844 65.0933H69.3128C68.3753 65.0933 67.594 64.312 67.594 63.3745C67.594 62.4369 68.3752 61.6557 69.3128 61.6557ZM69.3128 71.3432H73.844C74.7815 71.3432 75.5628 72.1244 75.5628 73.062C75.5628 73.9995 74.7816 74.7808 73.844 74.7808H69.3128C68.3753 74.7808 67.594 73.9995 67.594 73.062C67.594 72.1244 68.3752 71.3432 69.3128 71.3432Z" fill="currentColor">
                                                                                                            </path>
                                                                                                            <path d="M64.469 84.312H81.188V87.7495H64.469V84.312Z" fill="currentColor">
                                                                                                            </path>
                                                                                                            <path d="M87.125 22.75L85.7188 22.5937C84.7813 22.4375 83.8438 21.8125 83.375 20.8749L83.0625 19.6249L82.4375 20.8749C81.9687 21.8124 81.1875 22.4374 80.25 22.5937L78.8438 22.75L79.7813 23.6875C80.5625 24.3125 80.8751 25.4063 80.7188 26.3437L80.5625 27.5937L81.8125 26.9687C82.75 26.4999 83.6875 26.4999 84.625 26.9687L85.875 27.5937L85.7188 26.1875C85.5625 25.25 85.875 24.1563 86.6563 23.5313L87.125 22.75Z" fill="currentColor">
                                                                                                            </path>
                                                                                                        
    </symbol>
    <symbol id="water" viewBox="0 0 30 40">

                                                                                                            <path d="M22.1989 27.104C21.4471 27.9589 20.4154 28.5182 19.2887 28.6816C18.1621 28.8449 17.014 28.6017 16.0504 27.9954C14.0342 24.1631 11.1016 19.8975 5.38639 19.1643C7.05264 16.5316 9.16878 14.1655 10.6684 12.2244C13.626 8.317 15.7505 4.37632 16.3837 0.227352C16.3878 0.19332 16.3986 0.160445 16.4155 0.130645C16.4325 0.100844 16.4552 0.0747134 16.4823 0.0537761C16.5095 0.0328389 16.5405 0.017514 16.5736 0.00869466C16.6067 -0.000124675 16.6413 -0.00226196 16.6752 0.00240754C16.7373 0.00434079 16.7964 0.0292974 16.8411 0.0724184C16.8857 0.115539 16.9127 0.173738 16.9169 0.235683C17.2826 2.4412 17.994 4.57523 19.0247 6.55911C21.2408 10.933 24.2567 14.5405 24.465 19.6892C24.5316 22.3552 23.8901 25.2211 22.1989 27.104ZM17.2001 29.92C19.133 31.3446 21.3657 32.486 23.7985 32.0194C25.0604 31.7788 26.2319 31.1962 27.1854 30.3353C28.1389 29.4744 28.8376 28.3682 29.2055 27.1373C30.0386 24.4463 29.4137 21.622 28.3723 19.0727C27.2584 16.4008 25.4873 14.0537 23.2236 12.2494C25.6064 15.3486 26.5561 21.1805 25.0065 25.3378C23.5402 29.1618 20.291 30.6448 17.2084 29.92H17.2001ZM13.3427 26.6624C12.2264 24.588 9.91026 22.0886 7.59417 21.3221C5.24945 20.5725 2.72348 20.6135 0.404297 21.4387C1.83727 21.7303 2.2455 22.9384 2.42879 24.5213C2.87868 28.2704 3.34523 31.5446 4.88651 34.2939C6.50278 37.1765 9.05214 38.5261 11.6515 39.2926C14.909 40.284 19.4329 40.334 21.7323 38.7928C18.7796 39.4002 15.7152 39.1605 12.8929 38.1013C8.95217 36.3517 6.66107 33.5024 5.7613 27.6539C9.01882 34.1522 14.9257 39.2676 22.5155 36.8182C25.3231 35.9018 27.8641 33.3774 29.3054 30.5281C28.5585 31.6951 27.5202 32.647 26.2928 33.2899C25.0655 33.9327 23.6917 34.2443 22.3072 34.1939C18.0332 34.0106 15.5922 30.7531 13.3427 26.6624Z" fill="currentColor">
                                                                                                            </path>
                                                                                                        
    </symbol>
</svg>
