<svg xmlns="http://www.w3.org/2000/svg">
    <symbol id="oil-change" viewBox="0 0 56 60">

                                                                                                            <g clip-path="url(#oil-change-clip)">
                                                                                                                <path d="M10.3128 59.9991C9.10394 59.7218 7.93211 59.3605 6.93705 58.5776C5.18792 57.2015 4.18618 55.4194 4.17825 53.1921C4.15151 45.7528 4.1456 38.3134 4.18058 30.8742C4.19364 28.104 5.43902 25.8981 7.73076 24.3487C14.2363 19.9503 20.7696 15.5927 27.2886 11.214C28.2364 10.5775 29.2907 10.3671 30.4854 10.4169C30.4854 9.35969 30.4711 8.35117 30.4918 7.34327C30.5013 6.8779 30.5224 6.39955 30.6361 5.95166C31.0484 4.32622 32.5195 3.17309 34.2046 3.15593C36.2654 3.13489 38.3268 3.14324 40.3878 3.15051C42.6646 3.15856 44.2732 4.72941 44.3239 7.00519C44.3478 8.07866 44.3372 9.15307 44.3236 10.2268C44.3198 10.5196 44.4111 10.6648 44.6934 10.7907C46.5844 11.6336 47.5472 13.0939 47.5494 15.1638C47.5519 17.6241 47.5342 20.0845 47.5671 22.5444C47.5721 22.9175 47.7214 23.3473 47.9434 23.65C50.2928 26.8534 52.5832 30.0977 54.3048 33.686C54.9584 35.0484 55.6004 36.4839 55.8567 37.9535C56.4507 41.3589 55.1649 44.1956 52.6371 46.4878C51.3179 47.684 49.7395 48.4112 47.9844 48.727C47.6295 48.7909 47.5404 48.9224 47.5447 49.2544C47.5604 50.4844 47.5566 51.7147 47.5496 52.9447C47.5298 56.4724 45.1863 59.2477 41.6857 59.9001C41.5924 59.9174 41.505 59.9655 41.4149 59.9992C31.0473 59.9991 20.68 59.9991 10.3128 59.9991ZM45.3295 48.8781C45.2712 48.8704 45.1935 48.8607 45.1159 48.8495C39.9489 48.105 36.279 44.027 36.3555 39.0822C36.3814 37.4064 37.0088 35.8809 37.7108 34.3939C39.6895 30.2024 42.3431 26.4337 45.1222 22.7437C45.2937 22.5161 45.4158 22.1899 45.4187 21.9079C45.4427 19.6824 45.4352 17.4565 45.4309 15.2306C45.4276 13.4985 44.4394 12.5302 42.6798 12.5295C38.5382 12.5281 34.3966 12.5396 30.2551 12.5198C29.4736 12.5161 28.8056 12.7224 28.1644 13.1567C25.165 15.1878 22.1526 17.2003 19.1445 19.2189C15.7788 21.4775 12.412 23.7349 9.04657 25.9943C7.32139 27.1525 6.30767 28.7521 6.29881 30.8346C6.26741 38.2733 6.26445 45.7123 6.29866 53.151C6.31078 55.8052 8.47208 57.8809 11.1419 57.8843C20.956 57.8967 30.7702 57.8954 40.5845 57.8846C42.9114 57.882 44.9823 56.2839 45.2861 54.0002C45.5074 52.337 45.3295 50.6214 45.3295 48.8781ZM46.1761 24.8492C43.5302 28.5392 40.9083 32.1671 39.1884 36.3314C38.8293 37.2009 38.532 38.1596 38.4998 39.0873C38.3771 42.619 40.957 45.8119 44.4468 46.6113C47.9958 47.4244 51.6413 45.6404 53.1936 42.3511C54.2303 40.1545 54.0122 38.019 53.025 35.8647C51.4304 32.3847 49.3139 29.2249 47.1096 26.1149C46.8191 25.7051 46.5135 25.3059 46.1761 24.8492ZM42.1937 10.3917C42.1937 9.14363 42.24 7.95494 42.1784 6.77181C42.1329 5.89614 41.4527 5.2772 40.5898 5.2673C38.4728 5.24302 36.355 5.24457 34.2379 5.26576C33.4071 5.27411 32.7212 5.82546 32.6686 6.64453C32.5893 7.87977 32.6479 9.12383 32.6479 10.3917C35.8281 10.3917 38.9767 10.3917 42.1937 10.3917Z" fill="currentColor">
                                                                                                                </path>
                                                                                                                <path d="M4.18705 0C4.46053 0.271423 4.77382 0.513616 5.00066 0.819373C6.00209 2.16922 6.98409 3.53732 7.5079 5.15797C7.97713 6.60989 7.42954 8.21198 6.17421 9.16359C4.89805 10.131 3.17768 10.2125 1.81446 9.37006C0.481388 8.54651 -0.264594 6.96158 0.0864746 5.5092C0.239931 4.87417 0.499579 4.24085 0.83168 3.67728C1.44473 2.6369 2.13567 1.64076 2.81962 0.643528C2.99002 0.395149 3.25729 0.212654 3.48009 0C3.71579 0 3.95134 0 4.18705 0ZM3.96471 2.87229C3.88122 2.87678 3.79789 2.88126 3.71439 2.88559C3.22262 3.79018 2.69026 4.67575 2.25213 5.60539C1.925 6.29949 2.20844 7.05499 2.84045 7.51324C3.45894 7.9619 4.24628 7.95603 4.86866 7.49824C5.46834 7.05716 5.75831 6.29996 5.44704 5.63725C5.00315 4.69245 4.46349 3.79188 3.96471 2.87229Z" fill="currentColor">
                                                                                                                </path>
                                                                                                                <path d="M13.3742 15.2187C10.7376 15.2209 8.87144 12.632 9.77943 10.1837C10.4031 8.50199 11.4325 7.04697 12.5493 5.65923C12.996 5.10432 13.7424 5.09937 14.186 5.65166C15.3012 7.04001 16.331 8.49348 16.9554 10.1763C17.8647 12.6273 16.0118 15.2166 13.3742 15.2187ZM13.4932 8.13962C13.4094 8.14194 13.3256 8.14411 13.2419 8.14643C12.7497 9.05164 12.2167 9.93798 11.7784 10.8684C11.4527 11.5599 11.7377 12.3195 12.3652 12.7749C12.9872 13.2261 13.7732 13.2218 14.3921 12.7637C14.9963 12.3165 15.2872 11.5651 14.9763 10.9029C14.5325 9.95824 13.9923 9.05844 13.4932 8.13962Z" fill="currentColor">
                                                                                                                </path>
                                                                                                                <path d="M10.9122 30.8339C10.9514 29.8202 11.5044 28.8566 12.581 28.1698C16.9373 25.3906 21.2871 22.6012 25.6394 19.8159C26.4471 19.2988 27.2491 18.7724 28.065 18.2685C29.6851 17.2683 31.6628 17.6618 32.6874 19.1753C33.719 20.6993 33.3699 22.6799 31.792 23.7746C26.694 27.3115 21.5833 30.8305 16.4583 34.3284C14.9159 35.381 12.9778 34.9854 11.8723 33.4837C11.3443 32.7665 10.9037 32.0137 10.9122 30.8339ZM31.3538 21.044C31.0087 20.6082 30.8073 20.2158 30.4883 19.984C30.0233 19.646 29.5301 19.8265 29.0674 20.1232C23.9907 23.3792 18.9086 26.627 13.8301 29.8802C12.9065 30.4717 12.7934 31.0679 13.4083 31.9889C14.0226 32.9088 14.6261 33.0376 15.5274 32.4215C17.0471 31.3827 18.561 30.3353 20.077 29.2912C23.5125 26.9254 26.9543 24.5686 30.374 22.1806C30.7414 21.9241 30.9808 21.486 31.3538 21.044Z" fill="currentColor">
                                                                                                                </path>
                                                                                                                <path d="M25.851 52.6259C22.2187 52.6259 18.5864 52.6221 14.9541 52.63C14.3868 52.6312 13.9406 52.462 13.7456 51.9022C13.532 51.2885 13.9289 50.6527 14.5836 50.5393C14.794 50.5028 15.0142 50.5177 15.2298 50.5175C22.3176 50.5166 29.4055 50.5167 36.4933 50.5167C36.5718 50.5167 36.6503 50.516 36.7288 50.5169C37.544 50.5273 38.0075 50.9059 38.0124 51.5655C38.0176 52.2325 37.562 52.6235 36.7475 52.6242C33.1153 52.6281 29.4831 52.6259 25.851 52.6259Z" fill="currentColor">
                                                                                                                </path>
                                                                                                                <path d="M46.2242 44.1864C45.4299 44.2053 44.9751 43.8705 44.9311 43.2348C44.8848 42.5656 45.3192 42.1423 46.113 42.0831C48.1632 41.9302 49.5126 40.5696 49.6654 38.5017C49.7197 37.768 50.1623 37.333 50.8111 37.376C51.4235 37.4165 51.7895 37.8791 51.7811 38.6022C51.7471 41.5489 49.1926 44.1161 46.2242 44.1864Z" fill="currentColor">
                                                                                                                </path>
                                                                                                            </g>
                                                                                                            <defs>
                                                                                                                <clipPath id="oil-change-clip">
                                                                                                                    <rect width="56" height="60" fill="currentColor">
                                                                                                                    </rect>
                                                                                                                </clipPath>
                                                                                                            </defs>
                                                                                                        
    </symbol>
    <symbol id="ac" viewBox="0 0 60 60">

                                                                                                            <g clip-path="url(#ac-clip)">
                                                                                                                <path d="M57.0703 60.0002H2.94835C2.82315 59.9533 2.69951 59.9032 2.57431 59.8609C1.25034 59.4102 0.29726 58.5385 0.128241 57.1425C-0.0219971 55.8952 -0.0235621 54.6026 0.125112 53.3553C0.298825 51.9045 1.3192 51.0438 2.67917 50.579V15.7534C0.666597 15.0507 -0.0532969 13.5796 0.00304262 11.5232C0.075032 8.94723 0.0171275 6.36814 0.0218225 3.79061C0.0249524 1.50103 1.50856 0.0127291 3.79344 0.00959912C6.74031 0.00490416 9.68874 0.025249 12.6372 0.000209205C14.0613 -0.0123107 15.1505 0.536999 15.9909 1.67787C16.9393 2.96586 17.9362 4.22098 18.9002 5.498C19.3337 6.07235 19.8893 6.34623 20.6108 6.33527C21.5873 6.31962 22.5639 6.32588 23.5389 6.33527C24.1742 6.34153 24.5655 6.68426 24.5639 7.2101C24.5639 7.73437 24.168 8.0818 23.5357 8.08649C22.5795 8.09588 21.6218 8.07867 20.6656 8.09119C19.3416 8.10997 18.2852 7.60448 17.4855 6.54185C16.498 5.23196 15.4901 3.93928 14.5042 2.62939C14.0597 2.03939 13.4979 1.75612 12.7499 1.75925C9.7623 1.77334 6.7763 1.76238 3.78874 1.76551C2.48511 1.76551 1.77774 2.48384 1.77617 3.80469C1.77304 6.4996 1.77617 9.1945 1.77617 11.8894C1.77617 13.4153 2.42564 14.0726 3.93429 14.0726C18.1678 14.0726 32.3998 14.0726 46.6334 14.0726C49.8745 14.0726 53.1155 14.0757 56.3566 14.071C57.4803 14.0694 58.2221 13.3261 58.2393 12.2024C58.2487 11.578 58.2409 10.952 58.2409 10.3276C58.2409 8.72814 57.607 8.08962 56.017 8.08962C46.5864 8.08962 37.1574 8.08962 27.7268 8.08962C27.5124 8.08962 27.2917 8.1131 27.0851 8.07084C26.6062 7.97225 26.3277 7.67177 26.3511 7.16471C26.3731 6.68739 26.6548 6.41665 27.1149 6.34623C27.3058 6.31649 27.5045 6.33371 27.7002 6.33371C33.0305 6.33371 38.3609 6.33371 43.6896 6.33371C43.9166 6.33371 44.1419 6.33371 44.3876 6.33371V4.85167C44.2953 4.82976 44.2217 4.81254 44.1482 4.79689C42.7694 4.47763 41.9572 3.44474 42.084 2.16771C42.2107 0.882861 43.2593 0.0158591 44.6975 0.0127291C45.7523 0.00959912 46.8055 0.0127291 47.8603 0.0127291C50.6914 0.0127291 53.5224 0.00490416 56.3535 0.0174241C57.6258 0.023684 58.5977 0.906336 58.7479 2.14111C58.8919 3.32111 58.1751 4.38217 57.0092 4.72021C56.8293 4.77185 56.6493 4.8235 56.4881 4.87045V6.31806C57.4662 6.38535 58.3567 6.67018 58.9561 7.41198C59.3958 7.9566 59.6572 8.64519 59.9968 9.27119V12.9035C59.5961 14.3057 58.7792 15.3246 57.3379 15.7424V50.5978C58.7824 51.0219 59.6008 52.0407 59.9968 53.446V57.0784C59.8512 57.4352 59.7307 57.8045 59.557 58.1457C59.0374 59.1739 58.1157 59.6778 57.0671 60.0065L57.0703 60.0002ZM29.985 58.2427C35.8021 58.2427 41.6207 58.2427 47.4378 58.2427C50.3862 58.2427 53.3331 58.2459 56.2815 58.2412C57.51 58.2396 58.233 57.5041 58.2424 56.2662C58.2471 55.6808 58.1986 55.0908 58.2518 54.5102C58.3739 53.1831 57.5742 52.2347 55.9795 52.2379C38.6645 52.2707 21.3479 52.2582 4.03132 52.2582C3.87482 52.2582 3.71832 52.2551 3.56339 52.2598C2.54614 52.2911 1.80747 53.0266 1.78243 54.0501C1.76678 54.7137 1.77774 55.3772 1.7793 56.0424C1.7793 57.5948 2.42877 58.2427 3.98437 58.2427C12.6528 58.2427 21.3197 58.2427 29.9882 58.2427H29.985ZM44.4674 33.1388C44.4377 25.1433 37.9743 18.694 29.9991 18.7034C22.0193 18.7127 15.5559 25.1793 15.5512 33.1591C15.5465 41.1515 22.085 47.6775 30.0492 47.6274C38.0525 47.5758 44.4972 41.0999 44.4674 33.1388ZM51.1249 50.4851V15.8598H48.5176V16.5734C48.5176 24.9883 48.5176 33.4033 48.5176 41.8198C48.5176 42.0154 48.5286 42.211 48.5113 42.4051C48.466 42.9184 48.1185 43.2517 47.6428 43.2549C47.1702 43.258 46.8102 42.9199 46.7648 42.416C46.7476 42.222 46.7586 42.0263 46.7586 41.8307C46.7586 33.3954 46.7586 24.9617 46.7586 16.5265V15.8613H44.1372C44.1231 16.021 44.0997 16.154 44.0997 16.2855C44.0981 19.1165 44.0918 21.9476 44.109 24.7786C44.1106 25.0541 44.2264 25.3467 44.3516 25.6003C46.8681 30.6442 46.8681 35.6819 44.3563 40.729C44.2076 41.0294 44.1106 41.391 44.109 41.7243C44.0887 44.438 44.0981 47.1517 44.0997 49.8654C44.0997 50.0563 44.1169 50.2472 44.1278 50.4663H46.7586C46.7586 48.9937 46.7554 47.5523 46.7586 46.1125C46.7601 45.4333 47.0982 45.0233 47.635 45.0233C48.1702 45.0233 48.5098 45.4364 48.5129 46.1141C48.5192 47.3833 48.5145 48.6525 48.5145 49.9217C48.5145 50.1064 48.5145 50.291 48.5145 50.4851H51.1217H51.1249ZM8.89842 15.852V50.4663H11.4634V15.852H8.89842ZM7.04235 50.4773V15.8629H4.49612V50.4773H7.04235ZM52.9825 15.8488V50.4616H55.5194V15.8488H52.9825ZM15.8845 50.4726C15.8986 50.3098 15.9158 50.1956 15.9158 50.0829C15.9174 47.2315 15.9236 44.3816 15.908 41.5302C15.908 41.2736 15.8016 40.9981 15.6842 40.7618C13.138 35.7022 13.1395 30.6473 15.6717 25.583C15.8141 25.2998 15.9064 24.9586 15.908 24.644C15.9268 21.91 15.919 19.176 15.9174 16.4435C15.9174 16.2542 15.9002 16.0648 15.8908 15.8723H13.2929V50.4741H15.8861L15.8845 50.4726ZM50.3909 1.76551C49.0247 1.76551 47.66 1.76551 46.2938 1.76551C45.6897 1.76551 45.084 1.75456 44.4799 1.77334C44.095 1.78586 43.8508 2.01278 43.8446 2.39933C43.8383 2.78588 44.0746 3.00655 44.458 3.04724C44.613 3.06445 44.7695 3.0535 44.926 3.0535C47.7946 3.0535 50.6616 3.0535 53.5303 3.0535C54.4661 3.0535 55.4035 3.05976 56.3394 3.0488C56.7573 3.04411 57.0077 2.80779 57.0014 2.39151C56.9951 2.00496 56.7494 1.79525 56.3629 1.76864C56.2267 1.75925 56.0906 1.76551 55.9529 1.76551C54.0999 1.76551 52.2454 1.76551 50.3925 1.76551H50.3909ZM20.3056 15.8676H17.7202V22.4625C18.5575 21.716 19.3666 20.9992 20.1679 20.2715C20.243 20.2026 20.2993 20.0727 20.3009 19.9694C20.3103 18.611 20.3072 17.2542 20.3072 15.8676H20.3056ZM39.713 15.8629C39.713 16.8097 39.7881 17.7143 39.6942 18.6016C39.58 19.6924 39.8429 20.525 40.8226 21.0994C41.1011 21.2637 41.3124 21.5438 41.5456 21.7786C41.7819 22.0149 42.0104 22.2621 42.314 22.5798V15.8629H39.7114H39.713ZM17.7062 43.8527V50.4569H20.3056C20.3056 49.0876 20.3103 47.762 20.2978 46.4365C20.2978 46.3003 20.2289 46.125 20.1303 46.0343C19.3463 45.3128 18.5466 44.607 17.7046 43.8542L17.7062 43.8527ZM39.713 50.4601H42.289V43.8699C41.4767 44.6007 40.6927 45.2987 39.9211 46.0108C39.8194 46.1047 39.724 46.2659 39.7224 46.3958C39.7083 47.7385 39.713 49.0829 39.713 50.4601ZM46.1952 6.28989H54.6664V4.8501H46.1952V6.28989ZM22.0975 50.4507H24.7298C24.7298 49.8763 24.7423 49.352 24.722 48.8278C24.7173 48.6963 24.6437 48.496 24.5452 48.4506C23.7423 48.0828 22.9254 47.7448 22.0975 47.3911V50.4491V50.4507ZM22.0991 18.9381C22.927 18.5829 23.7126 18.2558 24.4872 17.9036C24.5968 17.8536 24.7142 17.6845 24.7189 17.5656C24.7439 17.0085 24.7298 16.4482 24.7298 15.8613H22.0991V18.9381ZM37.9399 47.3864C37.0916 47.7495 36.3076 48.0766 35.5345 48.4287C35.4249 48.4788 35.3076 48.6478 35.3029 48.7667C35.2778 49.3239 35.2919 49.8826 35.2919 50.4491H37.9414V47.3864H37.9399ZM35.2903 15.8535C35.2903 16.4592 35.281 17.0007 35.2982 17.5421C35.3013 17.6564 35.3717 17.8301 35.4578 17.8692C36.2638 18.2339 37.0807 18.575 37.907 18.9303V15.8535H35.2888H35.2903ZM26.5155 50.4663H29.0914V49.4068C28.2166 49.2847 27.3809 49.1674 26.5155 49.0469V50.4663ZM33.5016 49.0469C32.6314 49.1674 31.791 49.2847 30.9272 49.4053V50.4632H33.5016V49.0469ZM33.511 15.8598H30.9428V16.9334C31.8286 17.0523 32.6596 17.165 33.511 17.2792V15.8582V15.8598ZM29.1008 15.8692H26.5217V17.2808C27.395 17.1603 28.2354 17.0445 29.1008 16.9255V15.8692Z" fill="currentColor">
                                                                                                                </path>
                                                                                                                <path d="M8.85247 12.4326C6.36727 12.4295 4.35313 10.4153 4.35157 7.92856C4.34844 5.41989 6.38761 3.39167 8.89785 3.40732C11.3721 3.42297 13.3831 5.46214 13.3753 7.94421C13.3659 10.4247 11.3408 12.4342 8.85247 12.431V12.4326ZM8.87125 10.6751C10.394 10.6704 11.6225 9.43408 11.6178 7.91135C11.6131 6.39487 10.3674 5.16167 8.84777 5.16636C7.3266 5.17106 6.10279 6.40739 6.10748 7.93482C6.11218 9.46068 7.34069 10.6798 8.87125 10.6751Z" fill="currentColor">
                                                                                                                </path>
                                                                                                                <path d="M32.0242 29.9182C32.2871 29.0934 32.5672 28.2749 32.8067 27.4455C32.9632 26.904 33.0414 26.339 33.1917 25.7944C33.7019 23.9571 34.802 23.1527 36.7051 23.1981C39.2904 23.2591 41.893 25.6395 42.1982 28.2092C42.3828 29.7617 41.7521 30.951 40.5612 31.8713C39.0025 33.0763 37.1636 33.5755 35.2559 33.8666C34.7363 33.9464 34.2105 33.984 33.6768 34.0419C33.5469 34.3627 33.417 34.6851 33.2214 35.1656C34.0712 35.4394 34.885 35.7227 35.7129 35.9621C36.2731 36.1249 36.8584 36.2016 37.4203 36.3612C39.22 36.873 40.015 37.9731 39.9743 39.8496C39.918 42.4333 37.547 45.0391 34.9758 45.3567C33.3967 45.5524 32.2026 44.8982 31.2761 43.6838C30.0914 42.1344 29.6032 40.3144 29.3074 38.4285C29.2745 38.2173 29.2463 38.0044 29.2197 37.79C29.1394 37.139 28.7539 36.6815 28.0632 36.4175C27.8566 36.9246 27.6062 37.4254 27.4513 37.9528C27.2385 38.6805 27.107 39.4333 26.9239 40.1704C26.3198 42.6133 24.7533 43.5695 22.2978 43.0014C20.1647 42.5085 18.1913 40.4223 17.8407 38.2642C17.5747 36.6241 18.2476 35.369 19.5262 34.405C21.0662 33.2437 22.8659 32.7602 24.7329 32.466C24.9442 32.4331 25.1617 32.3674 25.3699 32.3846C26.1477 32.4503 26.6359 32.167 26.6892 31.1967C26.2603 31.0199 25.7642 30.7664 25.2384 30.6114C24.4919 30.3923 23.7204 30.2578 22.9645 30.0668C20.5685 29.4596 19.6405 27.9478 20.1632 25.5237C20.628 23.3624 22.7141 21.3561 24.8972 20.9962C26.5092 20.7301 27.7612 21.3686 28.7252 22.6206C29.9146 24.1668 30.4044 25.9869 30.708 27.8712C30.7456 28.1028 30.7738 28.3344 30.8019 28.5676C30.8781 29.2144 31.286 29.6641 32.0258 29.9166L32.0242 29.9182ZM26.3198 34.0403C25.6046 34.1405 24.8691 34.2078 24.1492 34.3533C22.8033 34.6256 21.5075 35.0466 20.4198 35.9355C19.7531 36.4801 19.4135 37.1656 19.5872 38.0483C19.894 39.5976 21.412 41.0859 22.9582 41.3488C24.229 41.5648 24.8221 41.1907 25.1617 39.956C25.2134 39.7682 25.2635 39.5788 25.3041 39.3895C25.5984 37.9763 25.8832 36.56 26.722 35.3361C26.7815 35.2501 26.7721 35.0795 26.7314 34.9715C26.6234 34.6804 26.4826 34.4034 26.3198 34.0403ZM30.8833 36.8542C30.985 37.5756 31.0492 38.3127 31.1979 39.0342C31.4796 40.3989 31.9006 41.715 32.8223 42.8058C33.3654 43.449 34.0446 43.7589 34.8991 43.5867C36.4281 43.2769 37.8913 41.798 38.1824 40.2658C38.4265 38.9779 38.0416 38.3519 36.7911 38.0107C36.5658 37.9497 36.3373 37.9011 36.1088 37.8511C34.7567 37.5537 33.3998 37.2752 32.2214 36.4801C32.1197 36.4113 31.9303 36.4066 31.8082 36.4473C31.5156 36.5474 31.2401 36.693 30.8833 36.8542ZM29.1384 29.4737C29.0335 28.7366 28.9693 28.0183 28.8238 27.3156C28.5421 25.9509 28.1242 24.6332 27.2087 23.5393C26.6704 22.8961 25.9974 22.5752 25.1383 22.7411C23.5905 23.0416 22.0928 24.5612 21.8299 26.1027C21.6108 27.3829 21.9785 27.9729 23.2102 28.3125C23.4168 28.3704 23.6249 28.4236 23.8346 28.4674C25.229 28.7601 26.6234 29.0449 27.8316 29.8712C27.9192 29.9307 28.0883 29.9307 28.1947 29.8916C28.4858 29.7851 28.7643 29.6427 29.1384 29.4737ZM36.5486 24.9493C35.5251 24.9446 35.1542 25.2342 34.8631 26.3609C34.4499 27.9588 34.2402 29.6177 33.2777 31.0356C33.0367 31.3892 33.6799 32.2703 34.1181 32.2265C34.6988 32.167 35.2825 32.1013 35.8537 31.9824C37.1777 31.7069 38.4594 31.3047 39.5393 30.4424C40.1652 29.9432 40.5549 29.3266 40.4563 28.4721C40.2482 26.6755 38.3546 24.9587 36.5501 24.9493H36.5486ZM30.0226 31.1842C28.949 31.1764 28.0429 32.0622 28.0272 33.1373C28.01 34.2313 28.9318 35.1593 30.0241 35.1499C31.0946 35.1405 31.9913 34.236 31.9913 33.1655C31.9913 32.0935 31.0962 31.1921 30.0226 31.1842Z" fill="currentColor">
                                                                                                                </path>
                                                                                                            </g>
                                                                                                            <defs>
                                                                                                                <clipPath id="ac-clip">
                                                                                                                    <rect width="60" height="60" fill="currentColor">
                                                                                                                    </rect>
                                                                                                                </clipPath>
                                                                                                            </defs>
                                                                                                        
    </symbol>
    <symbol id="general-maintenance" viewBox="0 0 44 44">

                                                                                                            <path d="M35.4244 0.00580213C34.2035 -0.0382931 32.9865 0.169327 31.8493 0.615744C30.7121 1.06216 29.6789 1.73782 28.8141 2.6007C26.36 5.05917 25.6409 8.70092 26.8241 11.9319L11.9369 26.8148C8.70437 25.6315 5.05966 26.3551 2.60118 28.8136C0.935466 30.4831 0 32.7452 0 35.1036C0 37.462 0.935466 39.7241 2.60118 41.3936C4.27142 43.0591 6.53393 43.9944 8.89268 43.9944C11.2514 43.9944 13.5139 43.0591 15.1842 41.3936C17.6382 38.9351 18.3603 35.2934 17.1771 32.0624L32.0599 17.1796C35.2924 18.3628 38.9401 17.6392 41.3971 15.1807C42.5555 14.0212 43.3712 12.5642 43.754 10.9705C44.1368 9.37672 44.0719 7.70821 43.5664 6.14903C43.5272 6.02858 43.4579 5.92017 43.3649 5.83414C43.272 5.74812 43.1585 5.68734 43.0354 5.6576C42.9123 5.62786 42.7836 5.63016 42.6616 5.66427C42.5397 5.69838 42.4285 5.76318 42.3386 5.85247L36.9279 11.2602L33.1542 10.8406L32.7346 7.06688L38.1394 1.66505C38.2294 1.57528 38.2948 1.46387 38.3293 1.34153C38.3638 1.21919 38.3663 1.09003 38.3366 0.966442C38.3068 0.842857 38.2457 0.729006 38.1593 0.635822C38.0728 0.542638 37.9638 0.473253 37.8428 0.43433C37.0608 0.180406 36.2474 0.0361884 35.4258 0.00580213H35.4244ZM33.9979 1.60426C34.6311 1.58053 35.2776 1.71102 35.9211 1.78367L31.4342 6.26765C31.3561 6.34633 31.2966 6.44153 31.2602 6.54623C31.2237 6.65093 31.2112 6.76247 31.2236 6.87263L31.747 11.5894C31.7649 11.7574 31.8396 11.9142 31.9588 12.034C32.078 12.1537 32.2345 12.2291 32.4024 12.2478L37.1192 12.7712C37.2296 12.7832 37.3413 12.7702 37.446 12.7333C37.5507 12.6963 37.6458 12.6363 37.7242 12.5577L42.2141 8.07073C42.4587 10.2816 41.959 12.5191 40.3487 14.1294C39.2938 15.1849 37.9448 15.8972 36.4782 16.1732C35.0117 16.4492 33.496 16.2759 32.1296 15.676C31.9926 15.6162 31.8406 15.5991 31.6938 15.6272C31.5469 15.6552 31.412 15.727 31.3066 15.8332L15.8307 31.3062C15.7251 31.4118 15.6538 31.5469 15.6263 31.6938C15.5988 31.8406 15.6163 31.9924 15.6765 32.1291C16.3711 33.7113 16.4908 35.4865 16.0151 37.1477C15.5393 38.8088 14.4979 40.2515 13.071 41.2261C11.6441 42.2007 9.92151 42.6459 8.20109 42.4848C6.48066 42.3237 4.87064 41.5664 3.64952 40.3438C2.95949 39.6562 2.41198 38.8392 2.0384 37.9396C1.66482 37.04 1.47252 36.0755 1.47252 35.1014C1.47252 34.1273 1.66482 33.1627 2.0384 32.2631C2.41198 31.3635 2.95949 30.5465 3.64952 29.8589C4.70433 28.8033 6.05338 28.0908 7.51997 27.8149C8.98655 27.5389 10.5023 27.7123 11.8687 28.3124C12.0057 28.3722 12.1576 28.3892 12.3045 28.3612C12.4513 28.3331 12.5863 28.2613 12.6916 28.1552L28.1676 12.6822C28.2732 12.5766 28.3444 12.4415 28.3719 12.2946C28.3995 12.1478 28.382 11.996 28.3218 11.8593C27.7223 10.4942 27.5486 8.98004 27.8235 7.51471C28.0983 6.04937 28.8089 4.70107 29.8624 3.64607C30.8284 2.68198 32.042 2.00359 33.3692 1.68581V1.68878C33.5768 1.63836 33.7859 1.61167 33.9979 1.60426ZM27.3402 15.894C27.1477 15.8991 26.9648 15.9788 26.8301 16.1164L15.4882 27.4598C15.4192 27.5286 15.3645 27.6103 15.3272 27.7003C15.2898 27.7903 15.2706 27.8867 15.2705 27.9842C15.2705 28.0816 15.2896 28.1781 15.3268 28.2681C15.364 28.3581 15.4186 28.4399 15.4874 28.5089C15.5563 28.5778 15.638 28.6325 15.728 28.6698C15.8179 28.7072 15.9144 28.7264 16.0118 28.7265C16.1092 28.7266 16.2057 28.7074 16.2957 28.6702C16.3858 28.633 16.4676 28.5784 16.5365 28.5096L27.8784 17.1662C27.9853 17.0621 28.0583 16.9281 28.0879 16.7818C28.1174 16.6355 28.1021 16.4837 28.0439 16.3462C27.9858 16.2087 27.8875 16.092 27.7619 16.0113C27.6364 15.9306 27.4894 15.8897 27.3402 15.894ZM7.51813 29.3518C7.33272 29.3598 7.15706 29.4371 7.02584 29.5683L3.3574 33.2353C3.26522 33.3272 3.19887 33.4418 3.16503 33.5675C3.13119 33.6932 3.13106 33.8257 3.16464 33.9515L4.50954 38.9603C4.54292 39.0859 4.60871 39.2005 4.70031 39.2926C4.79192 39.3847 4.90612 39.4512 5.03148 39.4853L10.0433 40.8287C10.1694 40.863 10.3024 40.8634 10.4286 40.8298C10.5549 40.7962 10.6701 40.7298 10.7625 40.6374L14.4309 36.9689C14.5231 36.877 14.5895 36.7624 14.6233 36.6367C14.6571 36.511 14.6573 36.3785 14.6237 36.2528L13.2788 31.2454C13.2453 31.119 13.1789 31.0037 13.0865 30.9113C12.994 30.8189 12.8788 30.7525 12.7524 30.719L7.74055 29.3785C7.66819 29.3584 7.5932 29.3494 7.51813 29.3518ZM7.77021 30.9191L11.9576 32.0401L13.0757 36.2246L10.0152 39.2851L5.82774 38.1641L4.70675 33.9796L7.77021 30.9191Z" fill="currentColor">
                                                                                                            </path>
                                                                                                        
    </symbol>
    <symbol id="alignment" viewBox="0 0 44 60">

                                                                                                            <g clip-path="url(#alignment-clip)">
                                                                                                                <path d="M37.3731 0C38.2259 0.427093 38.4988 1.1213 38.4666 2.05915C38.4108 3.67799 38.4519 5.29977 38.4519 6.92155C38.4519 7.1329 38.4519 7.34424 38.4519 7.54385C40.2366 7.89315 40.4244 8.09129 40.7473 9.93762C40.991 9.93762 41.239 9.94056 41.487 9.93762C42.7052 9.92441 43.6137 10.736 43.781 11.9894C43.9292 13.0961 43.1396 14.2585 42.0565 14.527C41.9053 14.5652 41.7512 14.5916 41.5971 14.6151C40.5521 14.7692 40.5477 14.7765 40.7503 15.9199C40.9939 15.9199 41.2419 15.9213 41.49 15.9199C42.7081 15.9096 43.6152 16.7241 43.781 17.9761C43.9278 19.0842 43.1396 20.2392 42.0521 20.5093C41.9758 20.5284 41.8995 20.5401 41.8217 20.5533C41.4621 20.6164 40.922 20.5606 40.784 20.7691C40.5918 21.0611 40.693 21.5499 40.6798 21.9549C40.671 22.2279 40.6783 22.5009 40.6783 22.8326C41.5457 22.9544 41.6573 23.5635 41.6265 24.2944C41.5942 25.0547 41.672 25.8237 41.5927 26.5766C41.5457 27.0155 41.3828 27.5218 41.0952 27.8359C40.7679 28.1926 40.6666 28.5213 40.6725 28.9704C40.6886 30.2209 40.3643 30.6729 39.1564 31.1308C39.1564 32.0496 39.1329 32.986 39.1754 33.9194C39.1843 34.1161 39.4059 34.3436 39.5864 34.4845C41.7028 36.1327 42.5643 38.9932 41.5839 41.475C40.671 43.7851 38.9553 45.2102 36.4603 45.4539C33.8507 45.7093 31.8268 44.629 30.4853 42.3644C30.274 42.0092 30.0583 41.8801 29.6605 41.8889C28.6654 41.9138 27.6689 41.8948 26.6723 41.8977C26.483 41.8977 26.2951 41.9168 26.1352 41.9256C26.0911 42.0166 26.0647 42.0503 26.0603 42.0856C25.8915 43.7793 25.6684 43.9818 23.9542 43.9818C23.4478 43.9818 22.9415 43.9818 22.4205 43.9818C21.9919 45.9793 20.6284 46.5634 18.7351 46.3858C18.7351 46.6618 18.7351 46.8716 18.7351 47.0801C18.7351 50.0682 18.7366 53.0564 18.7351 56.0431C18.7337 58.5499 17.2777 59.9985 14.7651 60C11.1517 60 7.53973 60.0015 3.92631 60C1.49144 59.9985 0.010556 58.5338 0.00908836 56.1077C0.00468533 48.1397 0.00615301 40.1717 0.010556 32.2037C0.010556 31.9718 0.0237651 31.7297 0.0927458 31.5124C0.227772 31.0853 0.580014 30.8241 0.988027 30.9621C1.2845 31.0633 1.54721 31.3774 1.7292 31.6577C1.83781 31.8265 1.76736 32.1142 1.76736 32.3475C1.76736 40.1791 1.76736 48.0091 1.76736 55.8406C1.76736 57.7545 2.59513 58.4575 4.60291 58.1771C4.60291 57.9599 4.60291 57.7324 4.60291 57.5049C4.60291 54.8294 4.60291 52.1538 4.60584 49.4782C4.60584 49.2449 4.61759 49.0086 4.66308 48.7811C4.75995 48.3041 5.09605 48.0898 5.5569 48.1192C5.99426 48.1471 6.27899 48.3995 6.3333 48.853C6.35825 49.0658 6.35972 49.2816 6.36118 49.4958C6.36265 52.1714 6.36118 54.847 6.36118 57.5226C6.36118 57.7339 6.36118 57.9467 6.36118 58.1992H8.49518C8.49518 57.9497 8.49518 57.7002 8.49518 57.4521C8.49518 51.555 8.49518 45.6564 8.49665 39.7593C8.49665 39.5069 8.49665 39.2485 8.54361 39.002C8.62874 38.5602 8.95016 38.2623 9.36698 38.3489C9.67079 38.412 9.98634 38.6923 10.1713 38.9624C10.3048 39.1561 10.2505 39.4907 10.2505 39.7622C10.2535 45.6403 10.2535 51.5183 10.2535 57.3963C10.2535 57.6488 10.2535 57.9027 10.2535 58.1977H12.3831C12.3831 57.9893 12.3831 57.7823 12.3831 57.5739C12.3831 54.8587 12.3831 52.145 12.3831 49.4298C12.3831 49.2155 12.3786 48.9968 12.4153 48.787C12.4917 48.3657 12.7955 48.0766 13.1844 48.1383C13.4955 48.1867 13.8316 48.4333 14.0342 48.6886C14.1765 48.8692 14.1355 49.2126 14.1355 49.4826C14.1413 52.3725 14.1384 55.2623 14.1384 58.1449C16.0199 58.5822 16.993 57.571 16.9886 56.0109C16.9549 44.9182 16.971 33.8255 16.971 22.7343C16.971 20.7015 16.3003 20.0969 14.1399 20.2833C14.1399 20.5166 14.1399 20.7603 14.1399 21.0054C14.1399 26.923 14.1399 32.8392 14.1369 38.7569C14.1369 39.0284 14.1281 39.3073 14.0665 39.5685C13.9637 40.0088 13.6438 40.2187 13.202 40.1937C12.7602 40.1688 12.477 39.9207 12.4095 39.476C12.3742 39.2456 12.3831 39.0093 12.3831 38.7745C12.3831 32.8568 12.3831 26.9406 12.3831 21.023C12.3831 20.7925 12.3831 20.5621 12.3831 20.2877H10.2535C10.2535 20.5386 10.2535 20.7661 10.2535 20.9951C10.2535 23.6897 10.2535 26.3844 10.2535 29.0805C10.2535 29.9905 9.979 30.4117 9.39046 30.4264C8.78578 30.441 8.49665 30.0037 8.49665 29.06C8.49665 26.3844 8.49665 23.7088 8.49665 21.0332V20.2921H6.36265C6.36265 20.5489 6.36265 20.7969 6.36265 21.045C6.36265 26.9421 6.36265 32.8407 6.36265 38.7378C6.36265 38.9917 6.36852 39.2485 6.32743 39.4966C6.25404 39.9384 5.96491 40.1835 5.52021 40.1952C5.07697 40.2084 4.76729 39.9897 4.67042 39.548C4.61759 39.3029 4.60731 39.046 4.60731 38.7936C4.60438 32.8965 4.60438 26.9979 4.60438 21.1008C4.60438 20.8483 4.60438 20.5959 4.60438 20.3537C2.92976 19.8606 1.77177 20.7104 1.76883 22.407C1.76589 24.1447 1.76883 25.8824 1.76883 27.6216C1.76883 27.7581 1.7703 27.8946 1.76883 28.0311C1.75709 28.7283 1.44741 29.1304 0.913176 29.1421C0.364266 29.1539 0.0149591 28.7268 0.010556 28.0062C0.00321766 26.5605 0.000282311 25.1163 0.010556 23.6707C0.0164267 22.95 -0.00118536 22.2221 0.0883428 21.5088C0.301156 19.8371 1.64848 18.5426 3.32897 18.5221C7.31224 18.4721 11.297 18.4633 15.2788 18.5132C17.3379 18.5397 18.7219 20.0998 18.7307 22.247C18.744 25.3526 18.7337 28.4567 18.7337 31.5623C18.7337 31.7752 18.7337 31.9894 18.7337 32.1201C19.5688 32.3182 20.3907 32.4048 21.1172 32.7159C21.8965 33.0491 22.237 33.8211 22.397 34.6929C23.0031 34.6929 23.6049 34.6929 24.2052 34.6929C25.576 34.6929 25.9869 35.0862 26.0442 36.4424C26.0486 36.5363 26.0618 36.6302 26.0794 36.7931C27.4018 36.7931 28.7036 36.8034 30.0039 36.7785C30.1434 36.7755 30.2931 36.5744 30.4105 36.4409C30.999 35.7746 31.5861 35.1053 32.1556 34.4228C32.2921 34.2599 32.4476 34.0471 32.4535 33.8519C32.4858 32.9552 32.4682 32.0569 32.4682 31.1176C31.1986 30.7742 30.8552 29.8554 30.933 28.6578C30.9462 28.4597 30.8508 28.1882 30.707 28.0561C30.2432 27.6275 30.0274 27.105 30.0142 26.4989C29.9951 25.6403 30.0084 24.7802 30.0084 23.9216C30.0084 23.3272 30.3092 22.9735 30.9124 22.8502V21.6805C29.932 21.8346 28.9414 21.8405 28.3132 20.9643C28.005 20.5342 27.798 19.9413 27.776 19.4115C27.7173 17.9247 28.6361 17.2305 30.8948 16.9531V15.7041C29.9526 15.8362 28.9751 15.87 28.3469 15.0216C28.0314 14.596 27.8024 14.009 27.7746 13.4821C27.6938 11.9659 28.5788 11.2864 30.9447 10.9606C30.9447 10.6142 30.9447 10.2532 30.9447 9.89066C30.9491 8.39069 31.5729 7.7229 33.1712 7.59521V6.99347C33.1712 5.31445 33.1991 3.63396 33.1595 1.95494C33.1374 1.02444 33.4721 0.374257 34.3263 0.00146767H37.3731V0ZM34.2294 31.0986C34.2294 32.192 34.2044 33.2414 34.2397 34.2893C34.2602 34.9013 34.0547 35.2946 33.5249 35.6337C31.9721 36.6243 31.2676 38.0568 31.4878 39.9105C31.7167 41.8375 33.2974 43.4652 35.1643 43.6956C37.2499 43.9524 39.2151 42.8194 39.9108 40.9584C40.6402 39.0064 40.0017 36.8254 38.286 35.7481C37.5948 35.3137 37.3379 34.8118 37.382 34.0251C37.4348 33.0608 37.3952 32.0907 37.3952 31.1H34.2309L34.2294 31.0986ZM38.8893 20.8879C38.7337 20.8777 38.6177 20.8762 38.5033 20.863C38.0556 20.8131 37.7841 20.5562 37.7298 20.1203C37.6726 19.6566 37.8824 19.3263 38.3418 19.1898C38.5077 19.1399 38.6838 19.1194 38.857 19.1018C39.7111 19.0137 40.5653 18.9359 41.4195 18.8435C41.8363 18.798 42.0638 18.5455 42.0169 18.1302C41.9728 17.7398 41.6881 17.64 41.3285 17.6855C41.1157 17.7134 40.9 17.7192 40.6872 17.7398C38.5135 17.9599 36.3399 18.1801 34.1663 18.4032C32.8072 18.5426 31.4496 18.6835 30.092 18.8259C29.662 18.8714 29.4594 19.1194 29.5255 19.5436C29.5871 19.934 29.8528 20.0176 30.2197 19.9721C31.0137 19.8752 31.8107 19.8048 32.6061 19.7241C33.3635 19.6478 34.1193 19.5612 34.8781 19.501C35.452 19.454 35.8805 19.7931 35.926 20.2921C35.97 20.7661 35.6442 21.1404 35.0865 21.2343C34.7988 21.2827 34.5053 21.3004 34.2147 21.3341C33.7186 21.3914 33.2226 21.4501 32.7485 21.5058V22.8341H38.8907V20.8894L38.8893 20.8879ZM18.7616 44.6393C19.1138 44.6393 19.4073 44.6555 19.6965 44.6364C20.2791 44.5953 20.6123 44.2827 20.6152 43.7088C20.627 40.8028 20.624 37.8954 20.6167 34.9894C20.6167 34.4375 20.3188 34.1132 19.764 34.0706C19.4411 34.0456 19.1153 34.0662 18.7616 34.0662V44.6408V44.6393ZM39.8242 26.7352V24.6716H31.7652C31.7652 25.2205 31.7828 25.7269 31.7593 26.2303C31.7417 26.606 31.8694 26.7513 32.2598 26.7425C33.1961 26.7205 34.134 26.7352 35.0718 26.7352C36.632 26.7352 38.1921 26.7352 39.8242 26.7352ZM29.935 14.0163C33.1976 13.6875 36.2606 13.3793 39.3222 13.0711C40.0003 13.0036 40.6798 12.939 41.3579 12.8715C41.7908 12.8289 42.0653 12.6088 42.0183 12.1538C41.9728 11.7223 41.6514 11.6563 41.2801 11.7076C41.126 11.7297 40.9689 11.7267 40.8134 11.7429C38.1202 12.0144 35.4255 12.2859 32.7324 12.5589C31.8415 12.6499 30.9491 12.7423 30.0597 12.8451C29.6634 12.8921 29.4345 13.1489 29.5372 13.529C29.5959 13.7462 29.8454 13.9121 29.935 14.0148V14.0163ZM22.4278 36.4776V42.1722H24.236V36.4776H22.4278ZM36.6466 7.59228V1.7891H34.9676V7.59228H36.6466ZM38.8937 14.8763C36.8037 15.0906 34.7783 15.2976 32.7309 15.506V16.7785C34.8032 16.5671 36.8404 16.3602 38.8937 16.1518V14.8749V14.8763ZM32.7514 10.7947C34.812 10.5863 36.8418 10.3809 38.8863 10.1739V9.40486C38.6662 9.39458 38.4754 9.37991 38.286 9.37991C36.8213 9.37844 35.3566 9.37991 33.8918 9.37991C33.0386 9.37991 32.659 9.8525 32.7529 10.7977L32.7514 10.7947ZM26.0442 38.5778C26.0442 39.0079 26.0266 39.4129 26.0559 39.8151C26.0647 39.9251 26.2159 40.1115 26.3054 40.113C27.4252 40.1336 28.5465 40.1262 29.6737 40.1262V38.5778H26.0456H26.0442ZM32.7353 29.2845H38.8731V28.5287H32.7353V29.2845Z" fill="currentColor">
                                                                                                                </path>
                                                                                                                <path d="M12.3688 43.8307C12.3688 43.3434 12.3424 42.8532 12.3761 42.3689C12.4114 41.8537 12.7856 41.5044 13.2318 41.5029C13.678 41.5 14.0757 41.8464 14.0948 42.3601C14.13 43.3346 14.1315 44.3106 14.1007 45.2851C14.0831 45.8414 13.6927 46.1848 13.2113 46.1716C12.7299 46.1584 12.3967 45.8106 12.3659 45.2352C12.3409 44.7685 12.3615 44.2989 12.3615 43.8307H12.3703H12.3688Z" fill="currentColor">
                                                                                                                </path>
                                                                                                                <path d="M6.33814 43.8509C6.33814 44.3191 6.34695 44.7873 6.33667 45.2555C6.32493 45.778 6.05928 46.1023 5.53239 46.1625C5.0686 46.2153 4.64151 45.8925 4.61949 45.3773C4.57693 44.347 4.58134 43.3108 4.62537 42.2805C4.64591 41.7903 5.00549 41.5188 5.49716 41.507C5.95655 41.4968 6.28971 41.8696 6.33521 42.3876C6.33814 42.4258 6.33961 42.4654 6.34108 42.5051C6.34108 42.9542 6.34108 43.4033 6.34108 43.8509H6.33814Z" fill="currentColor">
                                                                                                                </path>
                                                                                                                <path d="M10.2132 34.7014C10.2132 35.1887 10.2279 35.6774 10.2088 36.1632C10.1897 36.6651 9.89325 36.9528 9.40745 37.0144C8.96422 37.0702 8.52538 36.7253 8.5019 36.216C8.4564 35.2048 8.4564 34.1892 8.49456 33.1779C8.51364 32.6643 8.93193 32.334 9.3825 32.3502C9.83455 32.3678 10.1677 32.72 10.2161 33.2381C10.2205 33.2763 10.222 33.3159 10.222 33.3555C10.222 33.8046 10.222 34.2523 10.222 34.7014C10.2191 34.7014 10.2147 34.7014 10.2117 34.7014H10.2132Z" fill="currentColor">
                                                                                                                </path>
                                                                                                                <path d="M35.832 42.2087C34.2484 42.2205 32.951 40.9568 32.9319 39.382C32.9113 37.8277 34.2029 36.5112 35.7762 36.4819C37.329 36.454 38.6543 37.7573 38.6661 39.3262C38.6778 40.9143 37.4171 42.197 35.832 42.2102V42.2087ZM36.9034 39.3497C36.9034 38.7671 36.4132 38.2666 35.8291 38.2504C35.2347 38.2343 34.6916 38.7626 34.6946 39.3556C34.6975 39.9397 35.1862 40.4329 35.7762 40.4446C36.3956 40.4578 36.9034 39.9632 36.9019 39.3483L36.9034 39.3497Z" fill="currentColor">
                                                                                                                </path>
                                                                                                            </g>
                                                                                                            <defs>
                                                                                                                <clipPath id="alignment-clip">
                                                                                                                    <rect width="43.7969" height="60" fill="currentColor">
                                                                                                                    </rect>
                                                                                                                </clipPath>
                                                                                                            </defs>
                                                                                                        
    </symbol>
</svg>
